<svg xmlns="http://www.w3.org/2000/svg" viewBox="0 0 25 25"><path d="M25 12.45C24.97 5.55 19.35-.03 12.45 0S-.03 5.65 0 12.55 5.65 25.03 12.55 25 25.03 19.35 25 12.45z" fill="#e0e0e0"/><path d="M17.8 8.97h-1.33V7.2c0-.75-.57-1.33-1.33-1.33h-5.3c-.75 0-1.33.57-1.33 1.33v1.77H7.2c-.75 0-1.33.57-1.33 1.33v4.42c0 .75.57 1.33 1.33 1.33h1.33v2.65c0 .27.18.44.44.44h7.07c.27 0 .44-.18.44-.44v-2.65h1.33c.75 0 1.33-.57 1.33-1.33V10.3c-.01-.76-.6-1.33-1.34-1.33zM9.4 7.2c0-.27.18-.44.44-.44h5.3c.27 0 .44.18.44.44v1.77H9.4V7.2zm6.18 11.04H9.4v-4.42h6.18v4.42zm2.65-3.53c0 .27-.18.44-.44.44h-1.33v-1.77c0-.27-.18-.44-.44-.44H8.97c-.27 0-.44.18-.44.44v1.77H7.2c-.27 0-.44-.18-.44-.44V10.3c0-.27.18-.44.44-.44h10.6c.27 0 .44.18.44.44v4.42z"/><path d="M15.26 11.2h1.5" fill="#e0e0e0"/><path d="M16.76 11.5h-1.5c-.18 0-.33-.15-.33-.33s.15-.33.33-.33h1.5c.18 0 .33.15.33.33s-.15.33-.33.33z"/></svg>