<svg xmlns="http://www.w3.org/2000/svg" viewBox="0 0 25 25"><path d="M25.13 12.3c0-6.9-5.6-12.5-12.5-12.5A12.5 12.5 0 0 0 .13 12.33c0 6.9 5.6 12.5 12.5 12.5 6.9 0 12.5-5.6 12.5-12.5z" fill="#e0e0e0"/><path d="M19.55 8.83a5.64 5.64 0 0 1-1.44.37c.53-.3.95-.8 1.16-1.38.01-.04-.03-.07-.06-.05a5.37 5.37 0 0 1-1.64.6 2.77 2.77 0 0 0-2-.85c-1.5 0-2.73 1.2-2.73 2.7 0 .2.02.42.07.6-2.26-.1-4.27-1.17-5.62-2.8-.01-.01-.02-.01-.03 0a2.72 2.72 0 0 0-.35 1.33c0 .9.46 1.72 1.17 2.2.01.01.01.03-.01.03-.42-.02-.8-.14-1.16-.32-.01-.01-.02 0-.02.01.01.12.05.65.2.98.35.84 1.1 1.48 2 1.66-.23.06-.47.1-.72.1-.17 0-.33-.02-.5-.05-.01 0-.02.01-.02.02.35 1.04 1.33 1.8 2.5 1.84.02 0 .02.02.01.03C9.44 16.58 8.28 17 7 17a4.63 4.63 0 0 1-.65-.04c1.2.76 2.65 1.2 4.2 1.2 2.13 0 3.85-.74 5.12-1.85 1.3-1.13 2.12-2.64 2.47-4.18.12-.54.2-1.1.2-1.62l-.01-.35c.5-.35.93-.78 1.28-1.28.02-.03-.02-.08-.05-.06z"/></svg>