<svg xmlns="http://www.w3.org/2000/svg" viewBox="0 0 25 25"><path d="M25 12.5C25 5.6 19.4 0 12.5 0 5.6 0 0 5.6 0 12.5 0 19.4 5.6 25 12.5 25 19.4 25 25 19.4 25 12.5z" fill="#e0e0e0"/><path d="M20.54 11.64c-.1-4-3.35-7.14-7.38-7.14-3.96 0-7.2 3.08-7.37 7-.01.1-.01.22-.01.32 0 1.3.35 2.58 1 3.7.02.03.02.06.01.1l-1.3 3.86c-.02.05.03.1.08.1L9.6 18.3c.03-.01.06-.01.08.01 1.07.57 2.27.87 3.5.87 4.07 0 7.38-3.3 7.38-7.33v-.2zm-12.37 3.5a5.86 5.86 0 0 1-1.01-3.3 5.78 5.78 0 0 1 .03-.58c.3-3.06 2.86-5.37 5.96-5.38 3.1 0 5.74 2.4 5.98 5.48.01.18.02.33.02.46 0 3.28-2.7 5.95-6 5.95a5.95 5.95 0 0 1-2.53-.56c-.22-.1-.64-.35-.77-.43-.03-.02-.06-.02-.1-.01l-2.02.65c-.05.01-.1-.03-.07-.08l.65-1.93c.01-.03.01-.07-.01-.1-.05-.04-.12-.13-.15-.17zm8.5-1.7c-.05-.07-.36-.23-.36-.23l-1.22-.58c-.15-.05-.32-.1-.47.1-.1.17-.45.56-.56.7-.08.1-.15.12-.32.03-.03-.01-.85-.37-1.42-.87-.5-.44-.85-1-.98-1.2-.08-.13-.03-.2.07-.3.06-.06.32-.37.34-.4.04-.06.12-.22.12-.22.08-.15.03-.28-.01-.36-.03-.06-.5-1.2-.55-1.3-.14-.32-.28-.34-.42-.33-.07 0-.7.01-.9.23l-.05.04c-.2.2-.6.64-.6 1.48a2.44 2.44 0 0 0 .09.62c.12.4.34.84.65 1.25.01.01.47.65.7.9.73.84 1.55 1.45 2.37 1.78 1.06.4 1.5.5 1.77.5.1 0 .35-.06.4-.06.32-.03 1.1-.43 1.25-.88.14-.44.14-.8.1-.9z"/></svg>