<svg xmlns="http://www.w3.org/2000/svg" viewBox="0 0 25 25"><path d="M25 12.45C24.97 5.55 19.35-.03 12.45 0S-.03 5.65 0 12.55 5.65 25.03 12.55 25 25.03 19.35 25 12.45z" fill="#e0e0e0"/><path d="M6.02 7.868a.61.61 0 0 0-.6.6l.03 8.12a.61.61 0 0 0 .6.6l12.93-.05a.61.61 0 0 0 .6-.6l-.03-8.12a.61.61 0 0 0-.6-.6l-12.93.05zm.87.9l11.2-.04-5.57 4.98-5.62-4.94zm-.57.7l3.13 2.75-3.1 3.36-.03-6.1zm12.33-.05l.02 6.1-3.13-3.34 3.1-2.77zm-8.52 3.4l2.08 1.83c.17.15.43.15.6 0l2.06-1.84 3.23 3.44-11.18.04 3.2-3.47z"/></svg>