<?xml version="1.0" encoding="UTF-8"?>
<svg width="15px" height="25px" viewBox="0 0 15 25" version="1.1" xmlns="http://www.w3.org/2000/svg" xmlns:xlink="http://www.w3.org/1999/xlink">
    <!-- Generator: sketchtool 63 (101010) - https://sketch.com -->
    <title>80532500-22D3-46F7-9EA3-6C8648F43B6D</title>
    <desc>Created with sketchtool.</desc>
    <defs>
        <path d="M49.2220588,1.26832433e-10 L49.2208545,0.522948505 L49.2209449,1.1879485 C49.2209449,1.7104485 49.2187756,2.2329485 49.2223911,2.7554485 C49.2231142,2.84649017 49.1992519,2.8741985 49.1153726,2.87340684 C48.5976345,2.8694485 48.0798963,2.8623235 47.5621582,2.87578184 C47.3271514,2.8813235 47.0885291,2.9098235 46.8585839,2.96524017 C46.4153249,3.0713235 46.1535634,3.3919485 46.0653455,3.87486517 C46.0299137,4.0688235 46.0096669,4.26911517 46.0082208,4.46703184 C46.0017129,5.1921985 46.0053284,5.91736517 46.0053284,6.64253184 C46.0053284,6.66390684 46.0074977,6.6860735 46.0096669,6.7193235 L48.9859381,6.7193235 C49.111034,6.7193235 49.1132033,6.72011517 49.0972951,6.84915684 C49.030047,7.41915684 48.9599065,7.98915684 48.8926584,8.55915684 C48.8369799,9.03574017 48.7820244,9.5123235 48.7299614,9.98890684 C48.7128782,10.1482298 48.7135109,10.1681451 48.6020352,10.1706345 L46.0038822,10.1709902 L46.0038822,18.7914485 C46.0038822,18.8611152 46.002436,18.9307818 46.0017129,19.0004485 L42.7253561,19.0004485 C42.7268023,18.9529485 42.7296947,18.9054485 42.7296947,18.8579485 L42.7296947,10.1709902 L40.1185881,10.1709902 C40.022175,10.1709902 40.005604,10.1709902 40.0027585,10.1004365 L40.0021693,10.0490735 C40.0021693,8.97874017 40.0028924,7.90840684 40,6.8380735 C40,6.7406985 40.0267546,6.71615684 40.1135264,6.71615684 L41.3630396,6.71853184 L42.7289716,6.71853184 L42.7289716,6.6148235 C42.7304178,5.72499017 42.7239099,4.83515684 42.7354795,3.9453235 C42.7448798,3.22965684 42.8714219,2.5369485 43.1563225,1.88699017 C43.5435832,1.00580116 44.1503031,0.375946889 44.9757608,0.000586195543 L49.2220588,1.26832433e-10 Z" id="path-1"></path>
        <filter x="-59.6%" y="-18.4%" width="219.3%" height="157.9%" filterUnits="objectBoundingBox" id="filter-2">
            <feOffset dx="0" dy="2" in="SourceAlpha" result="shadowOffsetOuter1"></feOffset>
            <feGaussianBlur stdDeviation="1.5" in="shadowOffsetOuter1" result="shadowBlurOuter1"></feGaussianBlur>
            <feColorMatrix values="0 0 0 0 0   0 0 0 0 0   0 0 0 0 0  0 0 0 0.214925699 0" type="matrix" in="shadowBlurOuter1"></feColorMatrix>
        </filter>
    </defs>
    <g id="WEB" stroke="none" stroke-width="1" fill="none" fill-rule="evenodd" opacity="0.9">
        <g id="Menu---footer-2" transform="translate(-681.000000, -1241.000000)">
            <g id="Group-5" transform="translate(644.000000, 1242.000000)">
                <g id="Group-6">
                    <g id="Combined-Shape">
                        <use fill="black" fill-opacity="1" filter="url(#filter-2)" xlink:href="#path-1"></use>
                        <use fill="#FFFFFF" fill-rule="evenodd" xlink:href="#path-1"></use>
                    </g>
                </g>
            </g>
        </g>
    </g>
</svg>