<?xml version="1.0" encoding="UTF-8"?>
<svg width="15px" height="15px" viewBox="0 0 15 15" version="1.1" xmlns="http://www.w3.org/2000/svg" xmlns:xlink="http://www.w3.org/1999/xlink">
    <!-- Generator: sketchtool 63 (101010) - https://sketch.com -->
    <title>D57D85E5-143B-42EA-995D-20CBB5BB34A0</title>
    <desc>Created with sketchtool.</desc>
    <g id="WEB" stroke="none" stroke-width="1" fill="none" fill-rule="evenodd" opacity="0.55">
        <g id="Menu-2.3---Search" transform="translate(-953.000000, -32.000000)" fill="#FFFFFF" fill-rule="nonzero">
            <g id="Buscador" transform="translate(-1.000000, 0.000000)">
                <g id="magnifying-glass" transform="translate(954.000000, 32.000000)">
                    <path d="M14.8702595,14.2350333 L11.2242182,10.5898004 C12.2022621,9.46563193 12.7944112,7.99889135 12.7944112,6.39578714 C12.7944112,2.86696231 9.92348636,0 6.39720559,0 C2.86759814,0 0,2.87028825 0,6.39578714 C0,9.92128603 2.87092482,12.7915743 6.39720559,12.7915743 C8.00066534,12.7915743 9.4677312,12.1995565 10.592149,11.2217295 L14.2381903,14.8669623 C14.324684,14.9534368 14.4411178,15 14.5542249,15 C14.667332,15 14.7837658,14.9567627 14.8702595,14.8669623 C15.0432468,14.6940133 15.0432468,14.4079823 14.8702595,14.2350333 Z M0.894876913,6.39578714 C0.894876913,3.36252772 3.36327345,0.898004435 6.39387891,0.898004435 C9.42781104,0.898004435 11.8928809,3.36585366 11.8928809,6.39578714 C11.8928809,9.42572062 9.42781104,11.8968958 6.39387891,11.8968958 C3.36327345,11.8968958 0.894876913,9.42904656 0.894876913,6.39578714 Z" id="Shape"></path>
                </g>
            </g>
        </g>
    </g>
</svg>