<?xml version="1.0" encoding="UTF-8"?>
<svg width="20px" height="20px" viewBox="0 0 20 20" version="1.1" xmlns="http://www.w3.org/2000/svg" xmlns:xlink="http://www.w3.org/1999/xlink">
    <!-- Generator: sketchtool 63 (101010) - https://sketch.com -->
    <title>C1459154-C363-49BC-A54E-39B233BEBC92</title>
    <desc>Created with sketchtool.</desc>
    <g id="WEB" stroke="none" stroke-width="1" fill="none" fill-rule="evenodd">
        <g id="Menu-2.2" transform="translate(-97.000000, -120.000000)">
            <g id="Group-5" transform="translate(97.000000, 117.000000)">
                <g id="Group" transform="translate(0.000000, 3.000000)">
                    <g id="Group-2">
                        <g id="diagram" transform="translate(3.000000, 4.000000)" fill="#FFFFFF" fill-rule="nonzero">
                            <path d="M12.3666667,8.44444444 L12.3666667,5.77777778 L7.23333333,5.77777778 L7.23333333,3.55555556 L8.86666667,3.55555556 L8.86666667,0 L5.13333333,0 L5.13333333,3.55555556 L6.76666667,3.55555556 L6.76666667,5.77777778 L1.63333333,5.77777778 L1.63333333,8.44444444 L0,8.44444444 L0,12 L3.73333333,12 L3.73333333,8.44444444 L2.1,8.44444444 L2.1,6.22222222 L6.76666667,6.22222222 L6.76666667,8.44444444 L5.13333333,8.44444444 L5.13333333,12 L8.86666667,12 L8.86666667,8.44444444 L7.23333333,8.44444444 L7.23333333,6.22222222 L11.9,6.22222222 L11.9,8.44444444 L10.2666667,8.44444444 L10.2666667,12 L14,12 L14,8.44444444 L12.3666667,8.44444444 Z M5.6,0.444444444 L8.4,0.444444444 L8.4,3.11111111 L5.6,3.11111111 L5.6,0.444444444 Z M3.26666667,11.5555556 L0.466666667,11.5555556 L0.466666667,8.88888889 L3.26666667,8.88888889 L3.26666667,11.5555556 Z M8.4,11.5555556 L5.6,11.5555556 L5.6,8.88888889 L8.4,8.88888889 L8.4,11.5555556 Z M13.5333333,11.5555556 L10.7333333,11.5555556 L10.7333333,8.88888889 L13.5333333,8.88888889 L13.5333333,11.5555556 Z" id="Shape"></path>
                        </g>
                        <rect id="Rectangle" stroke="#FFFFFF" x="0.5" y="0.5" width="19" height="19" rx="3"></rect>
                    </g>
                </g>
            </g>
        </g>
    </g>
</svg>