<?xml version="1.0" encoding="utf-8"?>
<!-- Generator: Adobe Illustrator 27.9.0, SVG Export Plug-In . SVG Version: 6.00 Build 0)  -->
<svg version="1.1" id="Layer_1" xmlns="http://www.w3.org/2000/svg" xmlns:xlink="http://www.w3.org/1999/xlink" x="0px" y="0px"
	 viewBox="0 0 19 19" style="enable-background:new 0 0 19 19;" xml:space="preserve">
<style type="text/css">
	.st0{fill:#FFFFFF;}
</style>
<g id="XMLID_468_">
	<path id="XMLID_469_" class="st0" d="M14.1,10.8c0,0-1.4-0.7-1.7-0.8c-0.1,0-0.2-0.1-0.3-0.1c-0.2,0-0.3,0.1-0.5,0.3
		c-0.1,0.2-0.6,0.7-0.7,0.8c0,0,0,0-0.1,0c0,0-0.2-0.1-0.3-0.1C9.1,10.4,8,8.9,7.8,8.6V8.5l0.1-0.1c0,0,0.1-0.1,0.2-0.2l0.1-0.1
		C8.3,8,8.4,7.9,8.4,7.7V7.6c0.1-0.3,0-0.5,0-0.6S7.8,5.5,7.7,5.4C7.6,5.1,7.4,4.9,7.1,4.9c0,0,0,0-0.1,0S6.2,5,5.9,5.2
		C5.6,5.4,5,6.1,5,7.3c0,1.1,0.7,2.1,1,2.4c0,0,0,0,0,0.1c1.1,1.6,2.5,2.8,3.9,3.4c1.3,0.5,2,0.6,2.3,0.6l0,0c0.2,0,0.3,0,0.4,0h0.1
		c0.5,0,1.5-0.6,1.7-1.2c0.2-0.5,0.2-1.1,0.1-1.3C14.4,11,14.2,10.9,14.1,10.8z"/>
	<path id="XMLID_470_" class="st0" d="M9.7,0C4.5,0,0.3,4.2,0.3,9.3c0,1.7,0.4,3.3,1.3,4.7L0,18.6c0,0.1,0,0.2,0.1,0.3
		c0,0,0.1,0.1,0.2,0.1h0.1l4.9-1.6c1.3,0.7,2.9,1.1,4.4,1.1c5.1,0,9.3-4.2,9.3-9.3S14.8,0,9.7,0z M9.7,16.5c-1.5,0-2.9-0.4-4.1-1.2
		H5.5H5.4l-2.5,0.8l0.8-2.4c0-0.1,0-0.2,0-0.2c-0.9-1.3-1.4-2.7-1.4-4.3c0-4,3.3-7.3,7.4-7.3s7.4,3.3,7.4,7.3S13.7,16.5,9.7,16.5z"
		/>
</g>
</svg>
